<?xml version="1.0" encoding="UTF-8"?>
<svg version="1.1" viewBox="0 0 1024 1024" width="1280" height="1280" xmlns="http://www.w3.org/2000/svg">
<path transform="translate(664)" d="m0 0h73l27 6 31 9 20 8 21 10 20 12 11 8 14 11 12 11 13 13 9 11 9 12 9 14 12 23 7 17 7 25 4 24 1 12v20l-2 23-5 24-5 17v7l11 24 10 26 9 27 7 27 6 29 4 29 2 21 1 19v31l-2 29-3 26-4 23-5 23-7 26-12 35-13 30-14 28-13 22-14 21-13 18-13 16-9 11-16 17-21 21-8 7-14 12-16 12-18 13-16 10-15 9-24 13-23 11-30 12-31 10-28 7-31 6-35 5-8 1h-68l-49-7-30-6-30-8-36-12-20-8-31-15-24-14-19-12-17-12-13-10-14-11h-6l-21 6-29 8h-8l-6-4-4-8 2-10 11-42 1-3v-7l-20-26-15-22-12-19-13-24-11-23-11-28-7-20-7-23-7-28-6-35-4-42v-51l3-33 5-33 7-31 9-31 11-30 13-29 10-20 14-24 16-24 10-14 13-16 8-10 28-30 24-22 28-22 20-14 19-12 23-13 24-12 21-9 24-9 29-9 29-7 27-5 35-4 18-1 57-1 11-6 16-9 23-10 24-8 29-7z" fill="#03B6F9"/>
<path transform="translate(664)" d="m0 0h73l27 6 31 9 20 8 21 10 20 12 11 8 14 11 12 11 13 13 9 11 9 12 9 14 12 23 7 17 7 25 4 24 1 12v20l-2 23-5 24-5 17-2 7-11 23-10 17-11 16-14 17v9l9 70v11l-4 6-6 5-9 1-36-15-35-15-11-5-5-1-19 7-25 7-24 4-4-1-12-22-6-10-11-17-12-16-9-10-7-8-19-19-2-1v-2l-4-2-9-8-19-14-19-12-20-11-28-12-33-11-20-5-16-3-46-5-3-7-3-25v-33l4-26 6-23 8-21 8-16 8-14 8-12 13-16 7-8 6-7 8-7 10-9 14-11 6-4h2v-2l10-5 16-9 14-7 17-7 26-8z" fill="#FB5A94"/>
<path transform="translate(950,316)" d="m0 0 3 3 12 27 11 29 8 26 7 28 5 27 4 33 2 30v31l-2 29-3 26-4 23-5 23-7 26-12 35-13 30-14 28-13 22-14 21-13 18-13 16-9 11-16 17-21 21-8 7-14 12-16 12-18 13-16 10-15 9-24 13-23 11-30 12-31 10-28 7-31 6-35 5-8 1h-68l-49-7-30-6-30-8-36-12-20-8-31-15-24-14-19-12-17-12-13-10-14-11 4-2 16-5 40-11 8-1 26 14 26 12 25 9 21 6 24 5 22 3 16 1h33l19-1 34-6 17-4 29-10 26-11 23-12 22-14 16-12 13-11 10-9 16-16 18-22 13-18 9-15 9-16 11-23 9-24 5-16 5-22 3-14 3-31v-31l-2-28-5-30-6-23-9-26-4-9-4-10v-2l17-3 25-6 30-10 13 5 25 11 48 20 9-1 7-6 2-4v-11l-9-70v-9l11-13 10-14 11-18 12-23z" fill="#C8ECFE"/>
<path transform="translate(490,44)" d="m0 0h55v2l-12 8-13 11-8 7-3 1-2 4h-2l-2 4h-2l-2 4-9 10-13 17-8 13-7 12-9 20-7 21-5 21-3 21v33l3 25 1 6-36 3-27 4-22 5-22 6-21 8-26 12-20 11-15 10-11 8-16 13-10 9-6 6h-2v2l-15 15-9 11-13 17-13 20-12 22-12 28-9 27-6 24-4 24-2 16-1 38 1 21 5 34 6 25 10 30 9 20 12 23v8l-8 30-9 32-3 3-20-26-15-22-12-19-13-24-11-23-11-28-7-20-7-23-7-28-6-35-4-42v-51l3-33 5-33 7-31 9-31 11-30 13-29 10-20 14-24 16-24 10-14 13-16 8-10 28-30 24-22 28-22 20-14 19-12 23-13 24-12 21-9 24-9 29-9 29-7 27-5 35-4z" fill="#C8ECFE"/>
<path transform="translate(797,461)" d="m0 0h6l6 19 7 27 5 17 5 25 3 22 2 43v24l-3 35-4 22-5 18-6 20-8 23-7 17-13 26-9 16-7 11-8 12-9 12-14 18-9 10-7 8-5 5-5 4-13 13-13 10-12 10-16 11-19 12-12 7-16 8-22 10-21 8-25 8-30 7-20 3-20 2-18 2-7 3-4 4-1 2-10 1-7-1-5-1h-8l-30-7-36-11-22-8-20-9-23-11-24-14-19-12-17-12-13-10-14-11 4-2 16-5 40-11 8-1 26 14 26 12 25 9 21 6 24 5 22 3 16 1h33l19-1 34-6 17-4 29-10 26-11 23-12 22-14 16-12 13-11 10-9 16-16 18-22 13-18 9-15 9-16 11-23 9-24 5-16 5-22 3-14 3-31v-31l-2-28-5-30-6-23-9-26-4-9-4-10 1-2 4 1 21-4 18-5z" fill="#9AE3FE"/>
<path transform="translate(430,218)" d="m0 0h5l2 6 1 29 3 25 1 6-36 3-27 4-22 5-22 6-21 8-26 12-20 11-15 10-11 8-16 13-10 9-6 6h-2v2l-15 15-9 11-13 17-13 20-12 22-12 28-9 27-6 24-4 24-2 16-1 38 1 21 5 34 6 25 10 30 9 20 12 23v8l-8 30-9 32-3 3-20-26-15-22-12-19-13-24-11-23-10-25v-8l-3-6v-8l-3-5v-10l-1-3v-16l-1-13v-18l1-19v-12l2-22 3-24 5-24 8-29 4-13 10-24 11-23 11-20 10-15 10-14 10-13 8-10 13-15 21-21 8-7 14-12 17-13 13-9 13-8 17-10 23-11 13-6 22-8 23-7 27-6 37-6 28-3z" fill="#9AE3FE"/>
<path transform="translate(424,388)" d="m0 0h24l22 3 19 5 16 6 14 7 18 12 13 11 6 6v2h2l11 14 10 15 8 17 7 21 4 20 1 9v23l-4 25-6 20-8 18-10 16-7 9-11 13-13 12-19 13-16 8-14 6-21 7-1 32-2 4-4 2-13 1h-34l-5-3-2-4v-44l3-12 8-15 7-8 13-8 14-5 18-5 19-9 10-7 12-11 10-14 8-16 5-17 2-12v-14l-3-18-6-16-5-10-9-13-4-5-8-7-11-8-16-8-15-5-11-2h-24l-17 4-15 6-16 10-9 8-2 3h-2l-2 4-9 13-6 12-5 15-3 15-4 6-3 2-10 1h-36l-6-3-1-2v-20l5-22 7-19 11-20 8-11 9-11 12-12 14-11 14-9 21-10 18-6 16-3z" fill="#FBFDFE"/>
<path transform="translate(664)" d="m0 0h73l19 4 2 3-3 3-20 6-32 13-14 8-11 6-15 10-15 12-8 7h-2v2l-7 6-7 8-6 7-1 2h-2l-2 4-8 12-5 7-12 21-10 25-4 13-5 16-13 2-13 5-5 5-5 4-7 12-2 9v11l3 11 4 8 8 8 9 5v2l8 2 13 1 6 21 4 10v4l-5-1-16-5-33-11-20-5-16-3-46-5-3-7-3-25v-33l4-26 6-23 8-21 8-16 8-14 8-12 13-16 7-8 6-7 8-7 10-9 14-11 6-4h2v-2l10-5 16-9 14-7 17-7 26-8z" fill="#FA0467"/>
<path transform="translate(695,197)" d="m0 0h12l12 5 10 7 8 11 3 8 1 6v8l-4 13-6 9-7 7-12 6-8 2-11-1-11-4-6-4-9-9-5-11-2-8v-9l2-9 6-10 4-5 8-6 12-5z" fill="#FEFEFE"/>
<path transform="translate(833,197)" d="m0 0h12l11 4 11 8 8 11 4 13v8l-3 12-5 9-5 5-7 6-12 5-10 1-13-3-10-6-5-5-5-6-4-9-1-6v-15l4-11 7-9 8-6 12-5z" fill="#FDFDFE"/>
<path transform="translate(557,197)" d="m0 0h11l12 4 11 8 8 11 4 12v10l-4 13-6 10-12 9-11 4-10 1-12-3-9-5-9-9-5-10-2-9v-11l2-9 7-12 8-7 8-4z" fill="#FDFDFE"/>
<path transform="translate(399,392)" d="m0 0 4 1-5 3-3 1v3l-3 5-13 9-14 9-12 11-4 2-2 4-7 8-10 15-10 19-8 24-3 15-2 12-4 7 1 5 29 1v1l-10 1h-36l-6-3-1-2v-20l5-22 7-19 11-20 8-11 9-11 12-12 14-11 14-9 21-10z" fill="#E6F8FE"/>
<path transform="translate(419,777)" d="m0 0h35l11 2 4 4 1 3v44l-3 6-7 3-20 1h-23l-6-4-3-5v-46l5-6z" fill="#F8FCFE"/>
<path transform="translate(558,198)" d="m0 0h7l11 3-4 5-9 5-4 11-1 4v15l2 10 4 9 6 15-3 2-3 1h-10l-10-4-8-6-8-9-3-7-2-9v-11l2-9 7-12 8-7 8-4z" fill="#ECFAFE"/>
<path transform="translate(698,198)" d="m0 0h7l8 3-6 7-6 5-3 6-2 9v16l2 11 5 9 5 5 2 6-3 2h-18l-12-6-10-10-5-15v-17l4-9 7-9 8-7 12-5z" fill="#ECFAFE"/>
<path transform="translate(836,198)" d="m0 0 9 1 7 3-2 1v2l-10 6-4 7-3 13v13l5 14 6 10 2 8-2 1h-12l-12-3-9-6-7-9-4-18v-8l3-11 7-10 10-8 9-4z" fill="#ECF9FE"/>
<path transform="translate(289,97)" d="m0 0 4 2-2 5-5 3v3l-5 1v2l-13 7-5 4-4 1-16 12-18 13-10 7-10 8-11 6-3 3-8 7-6 6h-2v2h-2v2h-2v2h-2l-2 4-14 14-5 4-7 13-9 9-7 10h-2l-2 4-9 12-2 5-5 7-2 1-2 4-4 4-3-2-3 2 2-5 10-16 14-20 11-14 13-16 28-30 24-22 28-22 20-14 19-12 23-13z" fill="#C7F3FE"/>
<path transform="translate(961,341)" d="m0 0h2l10 26 9 27 7 27 6 29 4 29 2 21 1 19v31l-1 9-4-1-1-17 3-16-1-9-2-15-2-6-3-1-3-14v-10h2l-1-7h-3l-7-32-2-6-2-9-2-8-2-10-4-12-3-8 1-4 2-1-4-22-3-5z" fill="#C7F3FE"/>
<path transform="translate(419,777)" d="m0 0h35v1l-24 1 5 6v45l-4 4-9-1-5-3-3-3-4-1v7l-2-2v-46l5-6z" fill="#E5F8FE"/>
<path transform="translate(365,414)" d="m0 0 4 1-2 5-11 8-12 11-6 5-11 16-9 14-10 18-1 1-1 10-6 16h-4l-1-6 4-22 3-6 4-13 4-10 11-13 6-8 8-7 16-13 8-4z" fill="#DAF6FF"/>
<path transform="translate(437,49)" d="m0 0 2 2 1 3-9 3-7 1-5 1-4 2-5 2h-7l-9 2v2l-10 2-5 2-7 2-4 2-9 2-5 2-11 2v2l-14 5-4 2-4-1-3-1-3 5h-7l-2 1-3-1v-3l25-11 24-9 29-9 29-7z" fill="#C7F3FE"/>
<path transform="translate(70,321)" d="m0 0h3v3l3 1-7 17-3 8-2 3h-2l-2 9-3 13-2 1v7l-2 4-2 1-1 10-3 6-1 5h-2l-3 16-2 4h-3v4l2 2-3 10-3 3-2 3-1-3 6-29 10-36 9-25 11-26z" fill="#C6F3FE"/>
<path transform="translate(679,988)" d="m0 0 3 1-4 1 1 5-31 10-28 7-31 6-15 2-2-4 7-2h2l4-1h2l3-1v-2l2-1 12-1 8-3 16-3 5-2 16-3 14-5z" fill="#C7F2FE"/>
<path transform="translate(452,141)" d="m0 0 2 1 2 2h2l-2 6-8 21-6 23-5 30h-1l-1-5-10 1 3-14 3-13 5-13 4-13 7-17 3-4z" fill="#C7F2FE"/>
<path transform="translate(538,213)" d="m0 0h4l-2 5h-2l-2 5-2 4 1 8 4 8 7 6v2l3 1 4 10-2 5-4 1-8-4-6-10-5-10-5-1v-11l1-6h2l2-6 5-3z" fill="#DAF5FE"/>
<path transform="translate(46,595)" d="m0 0h1l1 10-1 21v22l1 11v12l1 2v10l3 5v8l3 6-1 5-2-2-10-30-8-31v-4h3l3 8v-9l-3-13 3 1 1-5h2l1-9 1-3z" fill="#C6F2FE"/>
<path transform="translate(542,44)" d="m0 0h3v2l-12 8-13 11-8 7-3 1-2 4h-2l-2 4h-2l-2 4-9 10-2 2v-2l-5-1 3-7 3-4h2l2-4 5-5 10-9 11-6h2l2-7 5-6 6-1v4l4-1 1-2h3z" fill="#CCF3FE"/>
<path transform="translate(912,464)" d="m0 0h2l1 4 3 1-2 2 3 4 1 9-3 6-8 9-4 2h-7l-4-2h-7l-11-2-1-2h6l-1-7 4-1 10 4 9-1 7-6 2-4z" fill="#C9F3FE"/>
<path transform="translate(674,239)" d="m0 0h4l4 6h5l3 3 3 11 1 6-1 2h-7l-8-6-7-12 1-7z" fill="#DAF6FF"/>
<path transform="translate(807,455)" d="m0 0 9 3 5 2v3l5 3-4 2-1 1h-6l-5-1-1 1 1 9 3 13v5l-2-4-6-21-2-10-14 3-12 4-15 4-23 4-2-2 10-2 24-5 26-8z" fill="#C9F3FE"/>
<path transform="translate(806,233)" d="m0 0h3l3 5 8 7 5 5 3 8v6l-5 1-8-5-5-7-5-15z" fill="#DAF6FF"/>
<path transform="translate(473 1e3)" d="m0 0 3 1-11 4-4 1-1-1-5 1-1 1-1 2h3l2 5-1 3-15-1-24-4 3-2h5v2h10l5-1 2 1 2-5 6-4 14-2z" fill="#C7F3FE"/>
<path transform="translate(90,285)" d="m0 0 6 1-1 5-2 4h-3l-3 9-8 15-7-1 8-17 9-15z" fill="#C7F2FE"/>
<path transform="translate(444,182)" d="m0 0h1l-1 9-3 16-2 24v15l2 23 3 13 1 1 38 4 12 2v1l-16-1-36-4-3-7-3-25v-33l4-26z" fill="#FB5A94"/>
<path transform="translate(950,316)" d="m0 0 3 3 6 14h-9l-1 3-5 1-2-5z" fill="#C9F2FE"/>
<path transform="translate(490,44)" d="m0 0h52v2h-3l-1 3-4 1-1-2 1-3-9 1h-42v-1z" fill="#9AE3FE"/>
<path transform="translate(797,459)" d="m0 0 3 1-3 2-17 5-18 5-23 4-2-2 10-2 24-5z" fill="#C7ECFE"/>
<path transform="translate(424,388)" d="m0 0h24l22 3v1l-14-1-18-1h-12l-9 1-1 1h-11v-1z" fill="#AFE9FE"/>
<path transform="translate(427,801)" d="m0 0h3l1 3v15h-3l-3-9v-7h2z" fill="#DAF6FF"/>
<path transform="translate(711,977)" d="m0 0 4 2-4 3-15 6v-2l-2-1 3-3z" fill="#C6F3FE"/>
<path transform="translate(281,535)" d="m0 0 7 3 2 2-1 5-7 1-1-1z" fill="#FAFDFE"/>
<path transform="translate(552,199)" d="m0 0 2 1-6 4-10 5-7 8-5 9-1-3 7-12 8-7 8-4z" fill="#FEFEFE"/>
<path transform="translate(338,423)" d="m0 0 2 1-26 26v-3l11-12 7-7z" fill="#C3EEFE"/>
<path transform="translate(29,616)" d="m0 0 4 2 1 4-1 7 3 6-2 5-2-4-3-16z" fill="#C8F3FF"/>
<path transform="translate(806,457)" d="m0 0h8l4 2v2l-5 2-5-2-7-1 3-2z" fill="#C7ECFE"/>
<path transform="translate(763,469)" d="m0 0 2 1-3 2-23 4-2-2 10-2z" fill="#CDEEFE"/>
<path transform="translate(814,500)" d="m0 0 4 5 2 10 2 7-2 2-3-9-2-8z" fill="#C6F3FF"/>
<path transform="translate(951,319)" d="m0 0h2l2 4v4h-6l-1-4 1-3z" fill="#9DE4FE"/>
<path transform="translate(75,311)" d="m0 0 2 1 2 2 2-1-2 6-7-1z" fill="#C6F3FF"/>
<path transform="translate(907,487)" d="m0 0 2 1-4 4-4 2-8-1-1-2h8z" fill="#EAF9FE"/>
<path transform="translate(431,656)" d="m0 0 2 1-12 12v-3l6-7z" fill="#CAEFFE"/>
<path transform="translate(29,452)" d="m0 0 4 2-2 5-1 3-2-4z" fill="#C6F2FE"/>
<path transform="translate(415,389)" d="m0 0h11v1l-9 1-1 1h-11v-1z" fill="#BEEDFE"/>
<path transform="translate(904,389)" d="m0 0 6 2-1 4-4 1z" fill="#C9F3FE"/>
</svg>
